<?xml version="1.0" encoding="utf-8"?>
<!-- Generator: Adobe Illustrator 22.0.1, SVG Export Plug-In . SVG Version: 6.00 Build 0)  -->
<svg version="1.1" id="Слой_1" xmlns="http://www.w3.org/2000/svg" xmlns:xlink="http://www.w3.org/1999/xlink" x="0px" y="0px"
	 viewBox="0 0 150 50" style="enable-background:new 0 0 150 50;" xml:space="preserve">
<style type="text/css">
	.st0{fill:#FFFFFF;stroke:#F2F2F2;stroke-miterlimit:10;}
	.st1{fill:#27D600;stroke:#00FF00;stroke-miterlimit:10;}
	.st2{fill:#FFFFFF;stroke:#000000;stroke-miterlimit:10;}
</style>
<path class="st0" d="M125.5,49.5h-101c-13.3,0-24-10.7-24-24v-1c0-13.3,10.7-24,24-24h101c13.3,0,24,10.7,24,24v1
	C149.5,38.8,138.8,49.5,125.5,49.5z"/>
<path class="st1" d="M75,49.5H25c-13.5,0-24.5-11-24.5-24.5v0c0-13.5,11-24.5,24.5-24.5h50c13.5,0,24.5,11,24.5,24.5v0
	C99.5,38.5,88.5,49.5,75,49.5z"/>
<circle class="st2" cx="75" cy="25" r="24.5"/>
</svg>
